<?xml version="1.0" standalone="no"?>
<!DOCTYPE svg PUBLIC "-//W3C//DTD SVG 20010904//EN"
 "http://www.w3.org/TR/2001/REC-SVG-20010904/DTD/svg10.dtd">
<svg version="1.0" xmlns="http://www.w3.org/2000/svg"
 width="937.000000pt" height="937.000000pt" viewBox="0 0 937.000000 937.000000"
 preserveAspectRatio="xMidYMid meet">

<g transform="translate(0.000000,937.000000) scale(0.100000,-0.100000)"
fill="#000000" stroke="none">
<path d="M0 7059 l0 -2311 23 6 c12 4 90 16 172 28 143 21 183 22 859 23 l709
1 181 220 c100 122 264 322 366 445 291 352 440 542 446 569 11 49 13 52 36
44 37 -11 105 -71 116 -101 8 -24 3 -42 -34 -118 -74 -151 -138 -300 -229
-530 -166 -423 -185 -470 -195 -487 -6 -10 -10 -24 -10 -31 0 -18 43 -37 84
-37 23 0 45 -11 74 -36 68 -57 61 -63 -84 -66 -100 -2 -129 -6 -135 -18 -12
-22 -49 -108 -49 -114 0 -3 -11 -29 -24 -58 -13 -29 -69 -170 -126 -313 -56
-143 -106 -269 -111 -280 -15 -35 -80 -216 -116 -325 -19 -58 -37 -135 -40
-173 -6 -63 -7 -67 -27 -61 -39 12 -91 42 -119 68 -26 24 -28 31 -22 69 13 73
95 307 242 687 14 36 32 83 40 105 34 88 62 161 74 190 65 159 89 219 86 221
-6 6 -281 24 -296 19 -9 -3 -35 -29 -56 -58 -22 -28 -136 -178 -253 -332 -117
-154 -229 -302 -250 -329 -298 -392 -604 -672 -897 -818 -115 -58 -259 -111
-358 -133 l-77 -17 0 -1504 0 -1504 4685 0 4685 0 0 4685 0 4685 -4685 0
-4685 0 0 -2311z m3156 -1488 c72 -51 90 -105 60 -167 -8 -16 -47 -103 -86
-194 -39 -90 -80 -183 -90 -205 -48 -106 -266 -611 -306 -709 -25 -61 -49
-120 -54 -131 -31 -66 -105 -277 -126 -359 -13 -48 -13 -60 -2 -67 67 -43 227
72 367 265 20 28 49 89 65 136 88 269 284 520 472 607 50 23 73 27 144 27 75
1 91 -3 138 -29 62 -34 131 -105 133 -137 8 -142 -32 -271 -111 -361 -48 -54
-95 -72 -225 -87 -55 -6 -141 -15 -190 -20 -174 -19 -178 -21 -200 -65 -28
-57 -29 -227 -1 -268 29 -43 72 -60 161 -65 137 -7 284 45 409 145 61 48 83
87 161 273 15 36 33 79 40 95 40 89 56 128 90 210 20 50 40 99 45 110 12 26
66 165 74 188 5 16 8 16 43 2 45 -19 102 -71 109 -100 4 -16 -139 -378 -206
-520 -5 -11 -21 -47 -35 -80 -66 -151 -95 -213 -187 -397 -163 -326 -259 -471
-388 -591 -82 -76 -159 -116 -235 -124 -51 -5 -55 -4 -96 34 -23 22 -39 45
-36 50 4 6 23 14 44 18 59 11 113 43 181 109 73 70 126 142 204 276 71 122
181 340 175 346 -3 3 -22 -7 -43 -21 -145 -99 -347 -140 -484 -99 -117 35
-203 122 -217 220 -3 24 -9 44 -13 44 -4 0 -23 -24 -44 -54 -49 -71 -160 -178
-216 -206 -66 -35 -129 -32 -177 6 -21 17 -49 51 -63 75 -37 65 -34 182 8 299
31 87 172 441 196 495 8 17 37 86 66 155 28 69 55 134 60 145 57 125 310 729
310 740 0 24 33 18 76 -14z m4376 -11 c85 -57 95 -93 49 -192 -15 -35 -49
-112 -75 -173 -26 -60 -53 -123 -61 -140 -7 -16 -30 -70 -50 -120 -20 -49 -40
-99 -45 -110 -20 -44 -131 -317 -175 -430 -25 -66 -57 -147 -70 -180 -69 -173
-152 -420 -157 -470 -3 -28 -1 -30 27 -27 94 10 271 196 376 397 97 187 164
400 176 562 6 80 5 82 -24 120 -38 48 -83 136 -83 163 0 12 7 20 18 20 31 0
120 -68 138 -105 26 -55 121 -97 232 -103 70 -4 95 -10 127 -30 52 -32 85 -62
85 -78 0 -25 -58 -140 -180 -360 -128 -229 -250 -472 -250 -496 0 -8 -4 -18
-9 -24 -5 -5 -12 -23 -16 -41 l-6 -31 41 9 c129 29 336 200 374 309 64 181
223 430 366 572 78 77 113 103 176 134 134 65 233 51 339 -47 l44 -40 19 43
c11 24 23 53 27 66 5 18 11 21 28 16 69 -21 122 -72 111 -107 -3 -10 -41 -92
-83 -180 -80 -167 -91 -190 -136 -292 -99 -224 -154 -423 -128 -469 8 -15 17
-13 79 19 81 42 163 119 246 230 103 138 156 139 64 1 -104 -154 -225 -276
-310 -311 -117 -49 -216 36 -216 187 0 72 27 204 60 290 11 29 20 59 20 65 0
7 -44 -38 -97 -100 -194 -224 -281 -315 -371 -388 -82 -66 -109 -77 -152 -59
-47 19 -119 106 -126 150 l-6 39 -76 -65 c-153 -130 -280 -167 -371 -106 -49
33 -81 77 -81 110 0 42 78 220 232 527 82 165 154 304 159 310 14 14 11 25 -7
25 -8 0 -53 16 -100 35 -46 19 -86 35 -88 35 -2 0 -6 -28 -9 -62 -27 -321
-290 -825 -508 -972 -84 -57 -173 -54 -236 9 -28 28 -33 40 -33 80 0 57 63
281 128 455 3 8 -41 -43 -99 -115 -57 -71 -178 -205 -269 -298 -153 -155 -168
-167 -201 -167 -24 0 -50 10 -80 32 -59 42 -77 65 -91 114 l-12 42 -64 -64
c-81 -80 -174 -130 -227 -120 -42 8 -98 61 -120 113 -9 20 -15 66 -15 109 0
126 41 268 130 447 33 65 55 117 50 115 -13 -5 -135 -144 -205 -233 -50 -63
-195 -266 -387 -538 -13 -18 -15 -18 -68 3 -91 36 -104 55 -74 113 15 29 11
27 -41 -21 -124 -114 -206 -138 -282 -83 -70 50 -89 150 -58 297 13 61 46 170
70 227 10 23 -7 22 -22 -2 -25 -41 -294 -340 -371 -413 -153 -146 -188 -161
-259 -109 -52 37 -80 74 -95 122 -47 157 230 669 464 858 178 144 326 153 455
28 l42 -40 30 65 c27 58 33 65 55 61 31 -6 106 -69 106 -89 0 -9 -22 -61 -49
-117 -83 -173 -151 -317 -151 -322 0 -3 -15 -38 -34 -79 -74 -160 -133 -369
-120 -428 5 -23 8 -25 33 -18 69 20 176 106 262 210 56 68 76 104 129 230 17
41 38 89 45 105 36 79 164 405 176 449 8 27 20 51 26 53 18 7 96 -41 126 -77
l26 -30 -19 -53 c-25 -73 -69 -186 -85 -222 -53 -118 -69 -156 -86 -197 -10
-27 -17 -48 -15 -48 2 0 30 33 62 73 237 293 374 440 488 524 32 24 67 43 78
43 31 0 88 -39 88 -60 0 -10 -34 -74 -76 -141 -185 -298 -282 -533 -304 -736
-14 -131 -3 -145 82 -95 98 57 218 190 248 276 89 253 308 549 495 668 157
100 258 104 352 15 l32 -30 29 64 c17 35 85 208 152 384 67 176 133 344 146
373 13 29 24 58 24 66 0 14 9 26 20 26 4 0 27 -14 52 -30z m-3214 -526 c37
-18 92 -70 92 -87 0 -18 -55 -109 -77 -129 -19 -17 -21 -17 -64 12 -88 60 -92
64 -84 98 6 29 78 122 94 122 5 0 22 -7 39 -16z m3162 -1494 c0 -47 -4 -50
-115 -79 -44 -11 -90 -24 -102 -27 -19 -5 -23 -2 -23 15 0 11 -4 21 -9 21 -20
0 -50 -37 -53 -65 -3 -28 -1 -30 35 -33 36 -3 38 -5 35 -35 -3 -29 -7 -32 -38
-35 l-35 -3 2 -199 2 -200 -24 -6 c-13 -3 -32 -4 -42 -2 -17 3 -18 19 -21 205
-2 200 -3 202 -25 205 -17 2 -23 11 -25 34 -3 27 1 33 22 38 22 5 26 12 26 42
0 52 62 114 115 114 28 0 38 -5 42 -19 4 -17 13 -15 106 25 56 24 108 43 115
44 7 0 12 -14 12 -40z m-3022 -47 l3 -43 -170 0 -171 0 0 -135 0 -134 108 -3
107 -3 0 -40 0 -40 -107 -3 -107 -3 -3 -97 -3 -97 -40 0 -40 0 -3 310 c-1 170
0 316 3 323 3 10 51 12 212 10 l208 -3 3 -42z m589 9 c6 -4 13 -34 15 -67 l3
-60 38 -3 c36 -3 37 -4 37 -43 0 -39 0 -39 -40 -39 l-40 0 0 -135 c0 -125 1
-136 22 -155 12 -11 28 -20 35 -20 10 0 13 -12 11 -42 -3 -42 -4 -43 -37 -41
-42 2 -81 29 -103 74 -15 27 -18 60 -18 172 0 130 -1 139 -20 144 -16 4 -20
14 -20 43 0 29 4 39 20 43 17 4 20 14 20 64 0 33 3 63 7 66 9 9 55 9 70 -1z
m-277 -167 c111 -75 141 -226 67 -336 -31 -47 -108 -96 -164 -105 -144 -21
-289 119 -269 262 9 68 50 139 98 172 60 41 64 42 148 39 65 -2 81 -6 120 -32z
m729 15 c51 -26 109 -94 122 -144 14 -50 6 -143 -14 -182 -41 -79 -123 -129
-212 -129 -133 0 -234 102 -235 238 0 97 55 184 140 221 51 22 152 20 199 -4z
m679 -8 c5 -32 -15 -52 -51 -52 l-31 0 26 -27 c31 -33 58 -95 58 -132 0 -71
-67 -179 -121 -196 -20 -7 -27 -25 -9 -25 14 0 50 -75 50 -105 0 -33 -21 -73
-55 -105 -22 -21 -38 -25 -98 -28 -46 -2 -81 2 -97 10 -33 18 -70 75 -70 109
0 27 3 29 40 29 30 0 42 -5 47 -17 17 -50 83 -68 121 -33 44 41 13 120 -47
120 -83 0 -180 64 -217 144 -54 115 -7 254 106 313 41 22 53 23 195 21 148 -3
150 -3 153 -26z m302 -9 c-1 -35 -4 -40 -48 -60 -72 -34 -76 -46 -82 -223 l-5
-155 -40 0 -40 0 0 230 0 230 38 3 c32 3 39 0 44 -17 7 -26 5 -26 49 4 20 14
47 25 60 25 21 0 24 -5 24 -37z m348 23 c15 -8 38 -26 52 -41 l25 -27 5 34 c5
31 7 33 45 33 l40 0 0 -230 0 -230 -40 0 c-40 0 -40 0 -43 41 l-3 40 -33 -31
c-58 -55 -141 -68 -213 -36 -91 42 -151 145 -140 246 8 83 48 146 127 198 31
21 140 23 178 3z m988 -2 c19 -9 43 -28 54 -42 21 -25 22 -24 24 18 1 22 6 25
44 28 l42 3 0 -236 0 -236 -42 3 c-43 3 -43 3 -42 41 1 20 0 37 -2 37 -2 0
-24 -15 -49 -34 -24 -19 -58 -37 -76 -41 -110 -24 -225 58 -259 188 -25 94 32
221 118 267 47 24 141 26 188 4z m-414 -220 c3 -244 2 -248 -49 -242 l-28 3
-3 233 -2 232 39 0 40 0 3 -226z"/>
<path d="M3647 4635 c-110 -30 -228 -130 -347 -290 -36 -49 -70 -96 -75 -104
-9 -15 76 -12 280 11 105 12 141 24 176 61 58 60 94 213 67 292 -15 46 -29 50
-101 30z"/>
<path d="M4898 4685 c-111 -41 -225 -163 -368 -389 -91 -144 -164 -291 -215
-431 -27 -76 -30 -95 -15 -95 20 0 397 388 500 514 58 70 142 173 188 228 77
93 82 102 69 121 -36 55 -98 75 -159 52z"/>
<path d="M8670 4678 c-117 -45 -307 -277 -449 -548 -62 -119 -141 -310 -141
-342 0 -18 15 -25 22 -10 2 5 50 51 107 103 126 114 325 333 482 529 64 80
126 154 138 164 47 43 8 101 -82 121 -12 2 -47 -5 -77 -17z"/>
<path d="M6911 4668 c-96 -47 -258 -231 -367 -414 -97 -164 -220 -451 -201
-470 10 -11 159 120 278 244 183 192 307 344 413 510 38 60 46 79 41 103 -4
16 -15 34 -25 39 -31 17 -92 11 -139 -12z"/>
<path d="M4583 3274 c-68 -29 -107 -117 -84 -187 14 -40 68 -93 106 -103 68
-17 155 36 176 106 23 75 -15 155 -88 185 -43 18 -68 18 -110 -1z"/>
<path d="M5330 3267 c-108 -57 -110 -204 -4 -264 48 -28 88 -29 134 -4 57 30
82 76 78 141 -5 67 -27 102 -84 130 -52 26 -71 25 -124 -3z"/>
<path d="M5888 3276 c-68 -30 -105 -96 -94 -168 9 -54 31 -85 79 -110 99 -50
212 23 212 136 0 42 -6 60 -28 89 -44 59 -111 79 -169 53z"/>
<path d="M6705 3276 c-87 -38 -120 -153 -67 -234 20 -31 83 -62 125 -62 38 0
90 31 121 73 32 44 29 123 -7 170 -29 38 -82 67 -121 67 -11 -1 -35 -7 -51
-14z"/>
<path d="M7689 3277 c-42 -19 -61 -39 -82 -86 -43 -97 33 -211 140 -211 41 0
103 40 125 80 29 52 21 131 -18 171 -50 54 -110 70 -165 46z"/>
<path d="M2427 5407 c-240 -304 -459 -588 -456 -592 2 -1 63 -6 134 -10 l130
-7 54 134 c30 73 65 157 78 186 12 29 23 55 23 57 0 3 32 82 71 176 39 93 69
172 67 174 -3 3 -48 -50 -101 -118z"/>
<path d="M740 4688 c-260 -10 -580 -46 -702 -79 l-38 -10 0 -724 c0 -399 2
-725 5 -725 3 0 45 14 95 30 213 71 426 206 644 411 120 112 277 295 609 709
166 206 305 377 309 378 4 2 6 8 2 13 -6 11 -624 9 -924 -3z"/>
</g>
</svg>
